<svg width="111" height="20" viewBox="0 0 111 20" fill="none" xmlns="http://www.w3.org/2000/svg">
<mask id="mask0_777_2463" style="mask-type:luminance" maskUnits="userSpaceOnUse" x="0" y="0" width="111" height="20">
<path d="M110.172 0H0V20H110.172V0Z" fill="white"/>
</mask>
<g mask="url(#mask0_777_2463)">
<path d="M85.1904 8.88962L80.2839 0.282227H76.7661L83.4201 12.0029V19.7099H86.9607V12.0029L93.6223 0.282227H90.0816L85.1904 8.88962Z" fill="#100F21"/>
<path d="M11.4918 19.7099H14.7654V0.282227H11.4918V8.3631H3.27356V0.282227H0V19.7099H3.27356V11.6367H11.4918V19.7099Z" fill="#100F21"/>
<path d="M40.1442 0.282227V3.56342H48.8432L39.8467 19.7099H54.0779V16.4364H45.417L54.3907 0.282227H40.1442Z" fill="#100F21"/>
<path d="M29.4924 0.290039H29.4237H26.2799H26.2036L18.8857 19.7178H22.0372L23.6549 15.4522L23.8609 14.9104H31.8503L32.0487 15.4522L33.6587 19.7101H36.8102L29.4924 0.290039ZM25.1047 11.6369L27.8518 4.41823L30.5988 11.6369H25.1047Z" fill="#100F21"/>
<path d="M58.7691 0.282227V3.56342H67.4604L58.4639 19.7099H72.6951V16.4364H64.0419L73.0079 0.282227H58.7691Z" fill="#100F21"/>
<path d="M105.999 9.04998L103.252 7.9359C101.634 7.32545 100.108 6.74552 100.108 5.21175C100.108 3.79245 101.344 2.90729 103.336 2.90729C104.931 2.90729 106.297 3.44143 107.647 4.57841L107.754 4.66997L109.601 2.54865L109.502 2.44182C107.899 0.892789 105.648 0 103.336 0C99.5053 0 96.6133 2.31973 96.6133 5.38726C96.6133 7.67646 98.0174 9.40099 100.787 10.5074L103.557 11.6444L103.641 11.6826C105.404 12.4151 106.671 12.9493 106.671 14.5517C106.671 16.116 105.282 17.0851 103.038 17.0851C101.215 17.0851 99.2612 16.261 97.8037 14.8798L97.6969 14.7806L95.6519 17.0622L95.7587 17.1614C97.6206 18.9546 100.253 19.9924 102.977 19.9924C107.212 19.9924 110.165 17.6574 110.165 14.3151C110.173 11.1408 107.945 9.82831 105.999 9.04998Z" fill="#100F21"/>
</g>
</svg>
