<svg width="200" height="200" viewBox="0 0 200 200" fill="none" xmlns="http://www.w3.org/2000/svg">
<path fill-rule="evenodd" clip-rule="evenodd" d="M200 33.6406C200 50.3184 187.864 64.1613 171.94 66.8203C187.864 69.4793 200 83.3226 200 100C200 116.677 187.864 130.521 171.94 133.18C187.864 135.839 200 149.682 200 166.359C200 184.938 184.938 200 166.359 200C149.682 200 135.839 187.864 133.18 171.94C130.521 187.864 116.677 200 100 200C83.3226 200 69.4793 187.864 66.8203 171.94C64.1613 187.864 50.3184 200 33.6406 200C15.0614 200 0 184.938 0 166.359C0 149.682 12.1365 135.839 28.0595 133.18C12.1365 130.521 0 116.677 0 100C0 83.3226 12.1365 69.4793 28.0595 66.8203C12.1365 64.1613 0 50.3184 0 33.6406C0 15.0614 15.0614 0 33.6406 0C50.3184 0 64.1613 12.1365 66.8203 28.0595C69.4793 12.1365 83.3226 0 100 0C116.677 0 130.521 12.1365 133.18 28.0595C135.839 12.1365 149.682 0 166.359 0C184.938 0 200 15.0614 200 33.6406ZM66.8203 39.2217C64.4645 53.3294 53.3294 64.4645 39.2217 66.8203C53.3294 69.176 64.4645 80.3115 66.8203 94.4194C69.176 80.3115 80.3115 69.176 94.4194 66.8203C80.3115 64.4645 69.176 53.3294 66.8203 39.2217ZM105.581 66.8203C119.688 64.4645 130.824 53.3294 133.18 39.2217C135.535 53.3294 146.671 64.4645 160.779 66.8203C146.671 69.176 135.535 80.3115 133.18 94.4194C130.824 80.3115 119.688 69.176 105.581 66.8203ZM133.18 160.779C135.535 146.671 146.671 135.535 160.779 133.18C146.671 130.824 135.535 119.688 133.18 105.581C130.824 119.688 119.688 130.824 105.581 133.18C119.688 135.535 130.824 146.671 133.18 160.779ZM66.8203 105.581C69.176 119.688 80.3115 130.824 94.4194 133.18C80.3115 135.535 69.176 146.671 66.8203 160.779C64.4645 146.671 53.3294 135.535 39.2217 133.18C53.3294 130.824 64.4645 119.688 66.8203 105.581Z" fill="#5D5FEF"/>
</svg>
